<svg xmlns="http://www.w3.org/2000/svg" xmlns:xlink="http://www.w3.org/1999/xlink" width="48" height="48" viewBox="0 0 48 48">
  <defs>
    <clipPath id="clip-Artboard_1">
      <rect width="48" height="48"/>
    </clipPath>
  </defs>
  <g id="Artboard_1" data-name="Artboard – 1" clip-path="url(#clip-Artboard_1)">
    <path id="Subtraction_200" data-name="Subtraction 200" d="M24,48a24.178,24.178,0,0,1-4.837-.488A23.87,23.87,0,0,1,10.581,43.9a24.074,24.074,0,0,1-8.557-10.24l4.483-1.9a19.14,19.14,0,0,0,1.6,2.879c.181.268.372.535.567.8.4.1.807.193,1.214.269a18.63,18.63,0,0,0,3.4.312h.1a19,19,0,0,0,3.551-.356,19.281,19.281,0,0,0,2.351-.619c-.1-.088-.2-.177-.29-.265a22.706,22.706,0,0,1-5.126-7.032,22.5,22.5,0,0,1-1.444-4.084c.153-.15.316-.3.485-.436a9.6,9.6,0,0,1,1.832-1.182,12.551,12.551,0,0,1,2.205-.844l.079-.022c.072.464.162.93.267,1.385a19.293,19.293,0,0,0,1.155,3.467A19,19,0,0,0,20.2,29.139a18.64,18.64,0,0,0,2.261,2.686,18.084,18.084,0,0,0,2.7,2.187,17.464,17.464,0,0,0,3.071,1.615,16.907,16.907,0,0,0,6.356,1.236c.2,0,.4,0,.6-.01a17.035,17.035,0,0,0,3.246-.428l3.8,3.188c-.4.468-.824.925-1.257,1.358a24.038,24.038,0,0,1-7.629,5.143,23.878,23.878,0,0,1-4.505,1.4A24.18,24.18,0,0,1,24,48Zm.211-9.591c-.576.284-1.169.546-1.763.779A22.482,22.482,0,0,1,14.8,40.729a19.124,19.124,0,0,0,16.6.832c.53-.224,1.058-.477,1.57-.751-.752-.05-1.508-.139-2.249-.263a22.649,22.649,0,0,1-6.5-2.139Zm18.891.123-3.8-3.19c.172-.231.339-.467.5-.7a19.16,19.16,0,0,0,1.47-2.591l0-.014-.02-.064a18.635,18.635,0,0,0-1.367-3.234A19,19,0,0,0,37.9,25.767a19.307,19.307,0,0,0-1.8-1.929,22.891,22.891,0,0,1-1.048,3.086c-.262.621-.556,1.239-.873,1.836a22.456,22.456,0,0,1-4.061,5.451c-.112.11-.227.222-.343.331l-.005,0,0,0a15.882,15.882,0,0,1-2.276-1.162,19.079,19.079,0,0,1-2.2-1.579c.51-.4,1-.834,1.466-1.281A19.305,19.305,0,0,0,29.13,27.74a19.09,19.09,0,0,0,1.235-2.012c.19-.357.37-.723.534-1.087a18.634,18.634,0,0,0,1.138-3.321,18.093,18.093,0,0,0,.483-3.443,17.49,17.49,0,0,0-.2-3.464,16.993,16.993,0,0,0-4.606-9.19V5.216l.425-4.86c.232.04.465.085.694.131A23.868,23.868,0,0,1,37.419,4.1a24.07,24.07,0,0,1,8.7,10.559,23.881,23.881,0,0,1,1.4,4.505,24.236,24.236,0,0,1,0,9.674A23.868,23.868,0,0,1,43.9,37.419c-.254.376-.523.75-.8,1.113h0Zm-8.61-30.52c.28.569.539,1.154.77,1.74A22.677,22.677,0,0,1,36.837,18c.548.391,1.083.809,1.591,1.244a22.463,22.463,0,0,1,4.621,5.464c.01-.248.015-.5.015-.754a19.253,19.253,0,0,0-.388-3.851A19,19,0,0,0,39.8,13.27a19.216,19.216,0,0,0-5.161-5.161ZM1.5,32.374h0A23.922,23.922,0,0,1,.488,28.837a24.233,24.233,0,0,1,0-9.674A23.869,23.869,0,0,1,4.1,10.581a24.07,24.07,0,0,1,10.559-8.7,23.88,23.88,0,0,1,4.505-1.4,24.253,24.253,0,0,1,7.6-.33l-.423,4.836a19.34,19.34,0,0,0-4.357-.047c-.151.158-.3.322-.448.488a18.627,18.627,0,0,0-2.068,2.837A19,19,0,0,0,17.945,11.5a19.3,19.3,0,0,0-.868,3.281l.326-.1a22.856,22.856,0,0,1,4.282-.8c.671-.06,1.355-.091,2.031-.091a22.459,22.459,0,0,1,6.72,1.026c.15.047.3.1.453.147v.011a15.9,15.9,0,0,1,.042,2.555,19.093,19.093,0,0,1-.363,2.682c-.6-.261-1.207-.495-1.819-.694a19.309,19.309,0,0,0-3.567-.8,19.109,19.109,0,0,0-2.356-.146c-.4,0-.81.013-1.211.039a18.633,18.633,0,0,0-3.467.554,18.09,18.09,0,0,0-3.267,1.19,17.484,17.484,0,0,0-2.966,1.8,16.993,16.993,0,0,0-5.93,8.312L1.5,32.374ZM14.554,7.314h0c-.437.248-.869.515-1.283.795a19.165,19.165,0,0,0-6.923,8.407A19.01,19.01,0,0,0,5.234,20.1a19.247,19.247,0,0,0-.388,3.717c.061-.091.121-.179.178-.261.434-.624.9-1.233,1.4-1.81a22.654,22.654,0,0,1,5.367-4.586c.007-.164.017-.332.028-.5a22.471,22.471,0,0,1,2.739-9.35Z" transform="translate(55.517 10.799) rotate(112)" fill="#0369c7"/>
  </g>
</svg>
