<svg xmlns="http://www.w3.org/2000/svg" xmlns:xlink="http://www.w3.org/1999/xlink" width="2148" height="1099" viewBox="0 0 2148 1099">
  <defs>
    <clipPath id="clip-Artboard_1">
      <rect width="2148" height="1099"/>
    </clipPath>
  </defs>
  <g id="Artboard_1" data-name="Artboard – 1" clip-path="url(#clip-Artboard_1)">
    <path id="Union_2" data-name="Union 2" d="M1923.642,661.85a16.005,16.005,0,0,1-17.51-10.338l-54.181-148.859q-.114-.313-.214-.629l-71.942-197.658H1491.91a31,31,0,0,1-31-31v-130.8a31,31,0,0,1,31-31h217.71L1582.252-238.378v-.032a20.881,20.881,0,0,0-1.65-8.175,20.947,20.947,0,0,0-4.5-6.675,20.921,20.921,0,0,0-6.675-4.5,20.868,20.868,0,0,0-8.175-1.65h-29.737a20.866,20.866,0,0,0-8.174,1.65,20.927,20.927,0,0,0-6.674,4.5,20.923,20.923,0,0,0-4.5,6.675,20.867,20.867,0,0,0-1.651,8.175v.467L1390.355,92.192a30.781,30.781,0,0,1-11.536,14.922,30.933,30.933,0,0,1-28.2,3.6L1227.709,65.984a30.976,30.976,0,0,1-18.527-39.734L1366.868-406.99a31.138,31.138,0,0,1,1.054-7.977,30.869,30.869,0,0,1,2.948-7.2,31.237,31.237,0,0,1,10.509-11.011,31.068,31.068,0,0,1,8.981-4.892,30.891,30.891,0,0,1,10.152-1.716,30.909,30.909,0,0,1,10.565,1.865H1681.85l.232-.085a30.919,30.919,0,0,1,10.6-1.877,30.922,30.922,0,0,1,9.25,1.417,31.145,31.145,0,0,1,8.347,4.064,30.785,30.785,0,0,1,11.535,14.924l328.834,903.463a16.109,16.109,0,0,1,.973,2.165l54.18,148.859a15.969,15.969,0,0,1-1.409,13.861,19.889,19.889,0,0,1-18.336,12.183h-5.029l-.064.023a15.938,15.938,0,0,1-11.01-.023H1942.872l-.235.086a30.859,30.859,0,0,1-19,.713Z" transform="translate(-1206.303 437.795)" fill="#ed1740"/>
    <path id="Union_13" data-name="Union 13" d="M-193,661a31,31,0,0,1-31-31V499.193q0-.967.059-1.92V-407a31,31,0,0,1,31-31H-62a31,31,0,0,1,31,31V468.193H155a31,31,0,0,1,31,31V630a31,31,0,0,1-31,31Z" transform="translate(1228.333 438.013)" fill="#ed1740"/>
    <path id="Exclusion_5" data-name="Exclusion 5" d="M1806,661H1240a30.974,30.974,0,0,1-31-31V499.193a30.975,30.975,0,0,1,31-31h186.22V-106.613h193V468.193H1806a30.974,30.974,0,0,1,31,31V630a30.974,30.974,0,0,1-31,31ZM1426.222-245.192H1240a30.806,30.806,0,0,1-12.067-2.436,30.9,30.9,0,0,1-9.854-6.643,30.894,30.894,0,0,1-6.644-9.853A30.8,30.8,0,0,1,1209-276.193V-407a30.8,30.8,0,0,1,2.436-12.067,30.894,30.894,0,0,1,6.644-9.853,30.9,30.9,0,0,1,9.854-6.643A30.806,30.806,0,0,1,1240-438h566a30.805,30.805,0,0,1,12.067,2.436,30.9,30.9,0,0,1,9.854,6.643,30.892,30.892,0,0,1,6.643,9.853A30.8,30.8,0,0,1,1837-407v130.808a30.8,30.8,0,0,1-2.436,12.067,30.892,30.892,0,0,1-6.643,9.853,30.9,30.9,0,0,1-9.854,6.643A30.8,30.8,0,0,1,1806-245.193H1426.22Z" transform="translate(309.333 438.013)" fill="#ed1740"/>
  </g>
</svg>
